<?xml version="1.0" encoding="UTF-8" standalone="no"?>
<svg
   viewBox="0 0 12.7 15.875"
   version="1.1"
   x="0px"
   y="0px"
   id="svg20"
   sodipodi:docname="agreement.svg"
   inkscape:version="1.1.1 (3bf5ae0d25, 2021-09-20)"
   xmlns:inkscape="http://www.inkscape.org/namespaces/inkscape"
   xmlns:sodipodi="http://sodipodi.sourceforge.net/DTD/sodipodi-0.dtd"
   xmlns="http://www.w3.org/2000/svg"
   xmlns:svg="http://www.w3.org/2000/svg">
  <defs
     id="defs24" />
  <sodipodi:namedview
     id="namedview22"
     pagecolor="#ffffff"
     bordercolor="#666666"
     borderopacity="1.0"
     inkscape:pageshadow="2"
     inkscape:pageopacity="0.0"
     inkscape:pagecheckerboard="0"
     showgrid="false"
     inkscape:zoom="9.7213263"
     inkscape:cx="-15.584293"
     inkscape:cy="1.9030325"
     inkscape:window-width="1563"
     inkscape:window-height="1088"
     inkscape:window-x="858"
     inkscape:window-y="503"
     inkscape:window-maximized="0"
     inkscape:current-layer="svg20" />
  <g
     transform="translate(0,-284.29998)"
     id="g14">
    <path
       style=""
       d="m 8.0083022,291.13417 a 0.25836719,0.25836719 0 0 0 -0.140044,0.0362 8.5002229,8.5002229 0 0 0 -2.0732485,1.7384 L 5.1381816,292.4142 a 0.25836719,0.25836719 0 0 0 -0.3255433,0.0114 l -0.3653631,0.31885 a 0.25836719,0.25836719 0 0 0 -0.011377,0.37931 l 1.4479852,1.41851 a 0.25836719,0.25836719 0 0 0 0.4118504,-0.0703 9.7615821,9.7615821 0 0 1 1.9993768,-2.7373 0.25836719,0.25836719 0 0 0 0.028919,-0.34055 l -0.1162579,-0.15607 a 0.25836719,0.25836719 0 0 0 -0.1994695,-0.10388 z m -0.014023,0.22738 a 0.03099344,0.03099344 0 0 1 0.027384,0.0124 l 0.116258,0.15555 a 0.03099344,0.03099344 0 0 1 0,0.0408 9.9889555,9.9889555 0 0 0 -2.0458642,2.80138 h -0.00265 a 0.03099344,0.03099344 0 0 1 -0.049609,0.008 l -1.447456,-1.41854 a 0.03099344,0.03099344 0 0 1 0,-0.0455 l 0.3658658,-0.31885 a 0.03099344,0.03099344 0 0 1 0.038762,0 l 0.8288866,0.62426 a 8.272849,8.272849 0 0 1 2.1543963,-1.85417 0.03099344,0.03099344 0 0 1 0.013494,-0.004 z"
       fill="#000000"
       stroke="none"
       id="path2" />
    <path
       style=""
       d="m 2.8489273,284.82915 a 0.94977266,0.94977266 0 0 0 -0.9498277,0.9498 v 9.74257 a 0.94977266,0.94977266 0 0 0 0.9498277,0.9493 h 7.0016422 a 0.94977266,0.94977266 0 0 0 0.9503305,-0.9493 v -9.74257 a 0.94977266,0.94977266 0 0 0 -0.9503305,-0.9498 z m 0,0.22736 h 7.0016422 a 0.72239893,0.72239893 0 0 1 0.7224185,0.72244 v 9.74257 a 0.72239893,0.72239893 0 0 1 -0.7224185,0.72191 H 2.8489273 a 0.72239893,0.72239893 0 0 1 -0.7224448,-0.72191 v -9.74257 a 0.72239893,0.72239893 0 0 1 0.7224448,-0.72244 z"
       fill="#000000"
       stroke="none"
       id="path4" />
    <path
       style=""
       d="m 3.5119,286.35978 a 0.11368705,0.11368705 0 0 0 0,0.22737 h 3.40501 a 0.11368705,0.11368705 0 0 0 0,-0.22737 z"
       fill="#000000"
       stroke="none"
       id="path6" />
    <path
       style=""
       d="m 3.5119,287.48719 a 0.11368705,0.11368705 0 0 0 0,0.22737 h 3.40501 a 0.11368705,0.11368705 0 0 0 0,-0.22737 z"
       fill="#000000"
       stroke="none"
       id="path8" />
    <path
       style=""
       d="m 3.5119,289.742 a 0.11369,0.11369 0 0 0 0,0.22738 h 5.67665 a 0.11369,0.11369 0 0 0 0,-0.22738 z"
       fill="#000000"
       stroke="none"
       id="path10" />
    <path
       style=""
       d="m 3.5119,288.84197 h 5.67665 a 0.11368705,0.11368705 0 0 0 0,-0.22737 H 3.5119 a 0.11368705,0.11368705 0 0 0 0,0.22737 z"
       fill="#000000"
       stroke="none"
       id="path12" />
  </g>
</svg>
