<svg xmlns="http://www.w3.org/2000/svg" xmlns:xlink="http://www.w3.org/1999/xlink" xml:space="preserve" version="1.1" style="shape-rendering:geometricPrecision;text-rendering:geometricPrecision;image-rendering:optimizeQuality;" viewBox="0 0 12706 17350" x="0px" y="0px" fill-rule="evenodd" clip-rule="evenodd"><defs><style type="text/css">
   
    .fil0 {fill:black}
   
  </style></defs><g><path class="fil0" d="M3760 0l8946 0 0 12091 -2764 0c205,-141 381,-320 514,-535l1716 0 0 -11022 -7877 0 0 5843 -535 0 0 -6377zm5397 1379l284 0 0 4141 -284 0 0 -4141zm-4163 2847l3356 0 0 427 -3356 0 0 -427zm5178 0l1301 0 0 427 -1301 0 0 -427zm-5178 -949l3356 0 0 427 -3356 0 0 -427zm5178 0l1301 0 0 427 -1301 0 0 -427zm-5178 -949l3356 0 0 427 -3356 0 0 -427zm5178 0l1301 0 0 427 -1301 0 0 -427zm-5178 -949l3356 0 0 427 -3356 0 0 -427zm5178 0l1301 0 0 427 -1301 0 0 -427zm-2689 10712l-1698 0 0 -535 1184 0c133,215 309,394 514,535zm-2895 0l-828 0 0 -546 0 -4140 535 0 0 4151 293 0 0 535zm922 -6480l0 494c-105,-46 -220,-70 -339,-70 -119,0 -234,24 -339,70l0 -494c0,-448 678,-448 678,0zm2831 1490l-2587 0c-86,239 -315,409 -583,409 -268,0 -496,-170 -582,-409l-2588 0 1215 3612 150 0c0,800 -754,1449 -1683,1449 -930,0 -1683,-649 -1683,-1449l150 0 1356 -4032c1028,0 2055,0 3083,0 86,-239 314,-410 582,-410 268,0 497,171 583,410 1027,0 2055,0 3082,0l1357 4032 150 0c0,800 -754,1449 -1683,1449 -930,0 -1683,-649 -1683,-1449l150 0 1214 -3612zm-821 3612l2279 0 -1139 -3389 -1140 3389zm-6977 0l2280 0 -1140 -3389 -1140 3389zm4628 -4068c136,0 246,110 246,246 0,135 -110,245 -246,245 -135,0 -245,-110 -245,-245 0,-136 110,-246 245,-246zm339 1032l0 5450 865 292 0 461c-803,0 -1605,0 -2407,0l0 -461 864 -292 0 -5450c105,45 220,70 339,70 119,0 234,-25 339,-70z"/></g></svg>
