<?xml version="1.0" encoding="UTF-8" standalone="no"?>
<svg
   viewBox="0 0 12.7 15.875"
   version="1.1"
   x="0px"
   y="0px"
   id="svg1254"
   sodipodi:docname="bug.svg"
   inkscape:version="1.1.1 (3bf5ae0d25, 2021-09-20)"
   xmlns:inkscape="http://www.inkscape.org/namespaces/inkscape"
   xmlns:sodipodi="http://sodipodi.sourceforge.net/DTD/sodipodi-0.dtd"
   xmlns="http://www.w3.org/2000/svg"
   xmlns:svg="http://www.w3.org/2000/svg">
  <defs
     id="defs1258" />
  <sodipodi:namedview
     id="namedview1256"
     pagecolor="#ffffff"
     bordercolor="#666666"
     borderopacity="1.0"
     inkscape:pageshadow="2"
     inkscape:pageopacity="0.0"
     inkscape:pagecheckerboard="0"
     showgrid="false"
     inkscape:zoom="3.4370079"
     inkscape:cx="-32.441008"
     inkscape:cy="32.731959"
     inkscape:window-width="1563"
     inkscape:window-height="1088"
     inkscape:window-x="866"
     inkscape:window-y="485"
     inkscape:window-maximized="0"
     inkscape:current-layer="svg1254" />
  <g
     transform="translate(0,-284.29998)"
     id="g1248">
    <path
       style=""
       d="m 7.2011867,288.76666 a 1.0618524,1.0618524 0 0 0 0.5207294,-1.52717 2.8924017,2.8924017 0 0 0 -0.7216517,-0.81641 1.0618524,1.0618524 0 0 0 -1.2974039,0 2.8924017,2.8924017 0 0 0 -0.7216517,0.81641 1.0618524,1.0618524 0 0 0 0.5207294,1.52717 2.2954493,2.2954493 0 0 0 1.6992485,0 z"
       fill="#000000"
       stroke="none"
       id="path1222" />
    <path
       style=""
       d="m 9.0200152,293.06518 a 10.314872,10.314872 0 0 1 -5.3369055,0 4.2353278,4.2353278 0 0 1 -0.098326,-1.23032 13.725614,13.725614 0 0 0 5.5336564,0 4.2353278,4.2353278 0 0 1 -0.098326,1.23032 z"
       fill="#000000"
       stroke="none"
       id="path1224" />
    <path
       style=""
       d="m 9.0992718,291.62418 a 4.2353278,4.2353278 0 0 0 -0.3503974,-1.2599 10.704423,10.704423 0 0 1 -4.7946239,0 4.2353278,4.2353278 0 0 0 -0.3503973,1.2599 13.515389,13.515389 0 0 0 5.4954186,0 z"
       fill="#000000"
       stroke="none"
       id="path1226" />
    <path
       style=""
       d="m 7.9987181,295.03697 a 7.1902208,7.1902208 0 0 1 -1.4851167,1.38305 0.28387576,0.28387576 0 0 1 -0.3240778,0 7.1902208,7.1902208 0 0 1 -1.4851168,-1.38305 7.7816177,7.7816177 0 0 0 3.2943113,0 z"
       fill="#000000"
       stroke="none"
       id="path1228" />
    <path
       style=""
       d="m 3.7442902,293.29836 a 10.525098,10.525098 0 0 0 5.2145445,0 4.2353278,4.2353278 0 0 1 -0.4317396,0.99133 7.1902208,7.1902208 0 0 1 -0.3260642,0.48391 7.5713927,7.5713927 0 0 1 -3.6989368,0 7.1902208,7.1902208 0 0 1 -0.3260643,-0.48391 4.2353278,4.2353278 0 0 1 -0.4317396,-0.99133 z"
       fill="#000000"
       stroke="none"
       id="path1230" />
    <path
       style=""
       d="m 5.4338054,288.96578 a 2.6178058,2.6178058 0 0 0 -1.3843079,1.20462 10.494198,10.494198 0 0 0 4.6034348,0 2.6178058,2.6178058 0 0 0 -1.3836128,-1.20462 2.5056745,2.5056745 0 0 1 -1.8355141,0 z"
       fill="#000000"
       stroke="none"
       id="path1232" />
    <path
       style=""
       d="m 10.695626,290.22698 0.696722,0.66164 a 0.10511259,0.10511259 0 0 0 0.144609,-0.15249 l -0.696723,-0.66165 a 1.2720776,1.2720776 0 0 0 -0.594424,-0.31789 l -2.0211412,-0.45778 0.2732265,0.27747 1.7013337,0.38534 a 1.0618524,1.0618524 0 0 1 0.496397,0.26536 z"
       fill="#000000"
       stroke="none"
       id="path1234" />
    <path
       style=""
       d="m 8.0731081,287.91621 1.0185161,-0.48577 a 0.88308928,0.88308928 0 0 0 0.5034479,-0.79713 v -0.75694 a 0.10511259,0.10511259 0 0 0 -0.2100596,0 v 0.75694 a 0.6728641,0.6728641 0 0 1 -0.3837686,0.60737 l -0.9246597,0.44098 z"
       fill="#000000"
       stroke="none"
       id="path1236" />
    <path
       style=""
       d="m 6.6908858,285.86492 a 0.52556294,0.52556294 0 0 1 -0.6786466,0 L 5.0041515,285.0119 a 0.10511259,0.10511259 0 0 1 0.1355704,-0.16047 l 1.0421541,0.88176 a 0.2627815,0.2627815 0 0 0 0.339373,0 l 1.042154,-0.88176 a 0.10511259,0.10511259 0 0 1 0.1355704,0.16047 z"
       fill="#000000"
       stroke="none"
       id="path1238" />
    <path
       style=""
       d="m 11.828955,295.14235 -0.19397,-0.0803 a 0.28387576,0.28387576 0 0 1 -0.175894,-0.26238 v -1.29492 a 1.2720776,1.2720776 0 0 0 -0.429753,-0.95316 l -1.8584572,-1.64273 0.084421,0.35533 1.6345922,1.44492 a 1.0618524,1.0618524 0 0 1 0.358839,0.79564 v 1.29492 a 0.49410093,0.49410093 0 0 0 0.305207,0.45669 l 0.194666,0.0802 a 0.10511261,0.10511261 0 0 0 0.07945,-0.19431 z"
       fill="#000000"
       stroke="none"
       id="path1240" />
    <path
       style=""
       d="m 2.4573149,289.75659 2.0211412,-0.45778 -0.2739217,0.27747 -1.7006389,0.38534 a 1.0618524,1.0618524 0 0 0 -0.4963963,0.26536 l -0.6967227,0.66164 a 0.10532149,0.10532149 0 0 1 -0.1453036,-0.15249 l 0.6974178,-0.66165 a 1.2720776,1.2720776 0 0 1 0.5944242,-0.31789 z"
       fill="#000000"
       stroke="none"
       id="path1242" />
    <path
       style=""
       d="m 4.6265407,287.68166 v 0.23455 l -1.0192114,-0.48577 a 0.88308928,0.88308928 0 0 1 -0.5027526,-0.79713 v -0.75694 a 0.10511259,0.10511259 0 0 1 0.2100596,0 v 0.75694 a 0.6728641,0.6728641 0 0 0 0.3837686,0.60737 z"
       fill="#000000"
       stroke="none"
       id="path1244" />
    <path
       style=""
       d="m 0.87347505,295.14235 0.19466525,-0.0803 a 0.28387576,0.28387576 0 0 0 0.1751986,-0.26238 v -1.29492 a 1.2720776,1.2720776 0 0 1 0.4297533,-0.95316 l 1.859152,-1.64273 -0.084421,0.35533 -1.6345918,1.44492 a 1.0618524,1.0618524 0 0 0 -0.3588395,0.79564 v 1.29492 a 0.49410093,0.49410093 0 0 1 -0.3059025,0.45669 l -0.19396997,0.0802 a 0.10519108,0.10519108 0 0 1 -0.0804484,-0.19431 z"
       fill="#000000"
       stroke="none"
       id="path1246" />
  </g>
</svg>
