<?xml version="1.0" encoding="UTF-8" standalone="no"?>
<svg
   viewBox="0 0 12.7 15.875"
   version="1.1"
   x="0px"
   y="0px"
   id="svg10"
   sodipodi:docname="download.svg"
   inkscape:version="1.1.1 (3bf5ae0d25, 2021-09-20)"
   xmlns:inkscape="http://www.inkscape.org/namespaces/inkscape"
   xmlns:sodipodi="http://sodipodi.sourceforge.net/DTD/sodipodi-0.dtd"
   xmlns="http://www.w3.org/2000/svg"
   xmlns:svg="http://www.w3.org/2000/svg">
  <defs
     id="defs14" />
  <sodipodi:namedview
     id="namedview12"
     pagecolor="#ffffff"
     bordercolor="#666666"
     borderopacity="1.0"
     inkscape:pageshadow="2"
     inkscape:pageopacity="0.0"
     inkscape:pagecheckerboard="0"
     showgrid="false"
     inkscape:zoom="54.992126"
     inkscape:cx="6.3463631"
     inkscape:cy="13.747423"
     inkscape:window-width="3840"
     inkscape:window-height="2057"
     inkscape:window-x="0"
     inkscape:window-y="28"
     inkscape:window-maximized="1"
     inkscape:current-layer="svg10" />
  <g
     transform="translate(0,-284.29998)"
     id="g4">
    <path
       style=""
       d="m 6.1837377,284.83152 a 5.8134865,5.8134865 0 0 0 -5.64723657,5.81461 5.8134865,5.8134865 0 1 0 11.62695187,0 5.8134865,5.8134865 0 0 0 -5.9797153,-5.81461 z m -0.7131953,1.52899 h 1.7590687 a 0.05983402,0.05983402 0 0 1 0.058925,0.0598 v 0.66201 H 5.4105185 v -0.66201 a 0.05983402,0.05983402 0 0 1 0.059924,-0.0598 z m -0.059924,1.02047 h 1.8780178 v 0.70066 H 5.4106184 Z m 0,0.9993 h 1.8780178 v 1.79146 a 0.05983402,0.05983402 0 0 0 0.059924,0.0598 h 1.5668125 a 0.05983402,0.05983402 0 0 1 0.042946,0.10215 l -2.5658452,2.56626 a 0.05983402,0.05983402 0 0 1 -0.084892,0 l -2.5658452,-2.56626 a 0.05983402,0.05983402 0 0 1 0.041947,-0.10215 h 1.5675116 a 0.05983402,0.05983402 0 0 0 0.059924,-0.0598 z m -2.2994831,5.15957 h 6.4768842 v 0.44789 H 3.1111353 Z"
       fill="#000000"
       stroke="none"
       id="path2" />
  </g>
</svg>
