<?xml version="1.0" encoding="UTF-8" standalone="no"?>
<svg
   viewBox="0 0 12.7 15.875"
   version="1.1"
   x="0px"
   y="0px"
   id="svg1230"
   sodipodi:docname="euro outcome.svg"
   inkscape:version="1.1.1 (3bf5ae0d25, 2021-09-20)"
   xmlns:inkscape="http://www.inkscape.org/namespaces/inkscape"
   xmlns:sodipodi="http://sodipodi.sourceforge.net/DTD/sodipodi-0.dtd"
   xmlns="http://www.w3.org/2000/svg"
   xmlns:svg="http://www.w3.org/2000/svg">
  <defs
     id="defs1234" />
  <sodipodi:namedview
     id="namedview1232"
     pagecolor="#ffffff"
     bordercolor="#666666"
     borderopacity="1.0"
     inkscape:pageshadow="2"
     inkscape:pageopacity="0.0"
     inkscape:pagecheckerboard="0"
     showgrid="false"
     inkscape:zoom="10.255832"
     inkscape:cx="12.090681"
     inkscape:cy="6.1428462"
     inkscape:window-width="3840"
     inkscape:window-height="2057"
     inkscape:window-x="0"
     inkscape:window-y="28"
     inkscape:window-maximized="1"
     inkscape:current-layer="svg1230" />
  <g
     transform="translate(0,-284.29998)"
     id="g1224">
    <path
       style=""
       d="m 10.738737,287.16809 a 5.6985056,5.6985056 0 1 0 0,6.96378 0.27065438,0.27065438 0 0 0 -0.428305,-0.33076 5.1571968,5.1571968 0 1 1 0,-6.30227 0.27065438,0.27065438 0 0 0 0.428305,-0.33075 z"
       fill="#000000"
       stroke="none"
       id="path1218" />
    <path
       style=""
       d="m 8.9478638,287.47678 v 6.34657 l 3.2230232,-3.17354 z m 0.1559318,0.37082 2.8461444,2.80221 -2.8461444,2.80271 z"
       fill="#000000"
       stroke="none"
       id="path1220" />
    <path
       style=""
       d="m 6.0444753,287.36143 a 2.9284401,2.9284401 0 0 0 -0.6423769,0.0567 2.3964782,2.3964782 0 0 0 -1.5603544,1.08061 3.7612334,3.7612334 0 0 0 -0.4299781,0.97185 H 2.4368034 l -0.30487,0.69814 h 1.1534293 a 3.7612334,3.7612334 0 0 0 0.010361,0.69815 H 2.442761 l -0.3051291,0.69815 h 1.296669 a 3.7612334,3.7612334 0 0 0 0.4134006,0.9167 2.3964782,2.3964782 0 0 0 1.5600954,1.08061 2.9284401,2.9284401 0 0 0 2.0382517,-0.33289 0.4317737,0.4317737 0 0 0 0.2165432,-0.37437 v -0.47099 a 0.28064261,0.28064261 0 0 0 -0.4587296,-0.21653 1.9137615,1.9137615 0 0 1 -1.5955815,0.39967 1.3817997,1.3817997 0 0 1 -0.9001049,-0.62277 2.746555,2.746555 0 0 1 -0.1973755,-0.37943 H 6.3213709 L 6.627018,290.86684 H 4.3175692 a 2.746555,2.746555 0 0 1 -0.010361,-0.69815 h 2.0105363 l 0.3059061,-0.69814 H 4.484898 a 2.746555,2.746555 0 0 1 0.2193925,-0.43458 1.3817997,1.3817997 0 0 1 0.9001048,-0.62276 1.9137615,1.9137615 0 0 1 1.5955815,0.39966 v 0 a 0.28064261,0.28064261 0 0 0 0.4589887,-0.21653 v -0.47099 a 0.4317737,0.4317737 0 0 0 -0.2165432,-0.37437 2.9284401,2.9284401 0 0 0 -1.3958748,-0.38955 z m -0.00259,0.15531 a 2.7730261,2.7730261 0 0 1 1.3215352,0.36881 0.2763599,0.2763599 0 0 1 0.1385773,0.2398 v 0.47099 a 0.12522879,0.12522879 0 0 1 -0.2048872,0.0966 v 0 a 2.0691753,2.0691753 0 0 0 -1.7250929,-0.43255 1.5372134,1.5372134 0 0 0 -1.0008648,0.69309 2.9019688,2.9019688 0 0 0 -0.3079783,0.67235 h 2.120621 l -0.1688829,0.38752 H 4.1707032 a 2.9019688,2.9019688 0 0 0 0.010361,1.00877 h 2.2040265 l -0.1694011,0.38753 H 4.281565 a 2.9019688,2.9019688 0 0 0 0.2908828,0.61669 1.5372134,1.5372134 0 0 0 1.0008648,0.6936 2.0691753,2.0691753 0 0 0 1.7245749,-0.43255 0.12522879,0.12522879 0 0 1 0.2048872,0.0966 v 0.47099 a 0.2763599,0.2763599 0 0 1 -0.1380593,0.2398 2.7730261,2.7730261 0 0 1 -1.9304982,0.31518 2.2410644,2.2410644 0 0 1 -1.4585583,-1.01079 3.6058197,3.6058197 0 0 1 -0.4276469,-0.98955 H 2.3702345 l 0.1701781,-0.38753 h 0.9273022 a 3.6058197,3.6058197 0 0 1 -0.010361,-1.00877 H 2.3676443 l 0.1699191,-0.38752 h 0.993094 a 3.6058197,3.6058197 0 0 1 0.4416342,-1.0447 2.2410644,2.2410644 0 0 1 1.4585583,-1.01029 2.7730261,2.7730261 0 0 1 0.608963,-0.0541 z"
       fill="#000000"
       stroke="none"
       id="path1222" />
  </g>
</svg>
