<?xml version="1.0" encoding="UTF-8" standalone="no"?>
<svg
   viewBox="0 0 12.7 15.875"
   version="1.1"
   x="0px"
   y="0px"
   id="svg10"
   sodipodi:docname="euro.svg"
   inkscape:version="1.1.1 (3bf5ae0d25, 2021-09-20)"
   xmlns:inkscape="http://www.inkscape.org/namespaces/inkscape"
   xmlns:sodipodi="http://sodipodi.sourceforge.net/DTD/sodipodi-0.dtd"
   xmlns="http://www.w3.org/2000/svg"
   xmlns:svg="http://www.w3.org/2000/svg">
  <defs
     id="defs14" />
  <sodipodi:namedview
     id="namedview12"
     pagecolor="#ffffff"
     bordercolor="#666666"
     borderopacity="1.0"
     inkscape:pageshadow="2"
     inkscape:pageopacity="0.0"
     inkscape:pagecheckerboard="0"
     showgrid="false"
     inkscape:zoom="54.992126"
     inkscape:cx="6.0463202"
     inkscape:cy="7.9375"
     inkscape:window-width="1563"
     inkscape:window-height="1088"
     inkscape:window-x="0"
     inkscape:window-y="671"
     inkscape:window-maximized="0"
     inkscape:current-layer="svg10" />
  <path
     d="M 11.421072,9.7202395 C 10.500279,10.479731 9.2863086,10.783946 8.1161725,10.54843 7.3247506,10.389351 6.633912,9.9110489 6.2064725,9.2262495 5.9868595,8.8739348 5.8072481,8.4982131 5.6709725,8.1060595 h 3.7151 l 0.3724,-0.85214 h -4.3109 c -0.1096732,-0.6136334 -0.1157574,-1.2413059 -0.018,-1.85695 h 3.9566 l 0.3725,-0.85214 h -4.124 c 0.1400873,-0.4309072 0.3321345,-0.8431489 0.5719,-1.22762 0.4274624,-0.6848217 1.1183414,-1.1631264 1.9098,-1.32218 1.1701025,-0.2354869 2.3840295,0.068722 3.3047995,0.82818 0.191246,0.1574258 0.479448,0.021486 0.4796,-0.22622 v -0.91415 c -4e-6,-0.2098376 -0.112118,-0.4036841 -0.294,-0.50833 C 10.463409,0.51659658 9.1196676,0.29733521 7.8264725,0.55766953 6.6398354,0.79663245 5.604122,1.5140499 4.9632725,2.5409495 4.5764611,3.1606071 4.2736364,3.8973468 4.0945559,4.6055338 l -1.9061834,-0.060704 -0.3724,0.85214 h 2.133 c -0.077272,0.6168906 -0.072565,1.2412946 0.014,1.85695 h -1.7746 l -0.3724,0.85214 h 2.3213 c 0.1805763,0.6693461 0.4589416,1.3083801 0.8261,1.8964505 0.6408495,1.0269 1.6765629,1.744317 2.8632,1.98328 1.2931631,0.260309 2.6368645,0.04105 3.7801995,-0.61684 0.181885,-0.104648 0.293999,-0.298499 0.294,-0.50834 V 9.9464595 c -2.22e-4,-0.2476067 -0.28826,-0.3834986 -0.4795,-0.22622 z"
     fill="#000000"
     stroke="none"
     id="path2"
     style="fill:none;stroke:#000000;stroke-width:0.5;stroke-miterlimit:4;stroke-dasharray:none;stroke-opacity:1"
     sodipodi:nodetypes="ccccccccccccccccccccccccccccccsccc" />
  <text
     x="0"
     y="27.7"
     fill="#000000"
     font-size="5px"
     font-weight="bold"
     font-family="'Helvetica Neue', Helvetica, Arial-Unicode, Arial, Sans-serif"
     id="text6">Created by Phạm Thanh Lộc</text>
  <text
     x="0"
     y="32.7"
     fill="#000000"
     font-size="5px"
     font-weight="bold"
     font-family="'Helvetica Neue', Helvetica, Arial-Unicode, Arial, Sans-serif"
     id="text8">from the Noun Project</text>
</svg>
