<?xml version="1.0" encoding="UTF-8" standalone="no"?>
<svg
   viewBox="0 0 12.7 15.875"
   version="1.1"
   x="0px"
   y="0px"
   id="svg34"
   sodipodi:docname="jrl.svg"
   inkscape:version="1.1.1 (3bf5ae0d25, 2021-09-20)"
   xmlns:inkscape="http://www.inkscape.org/namespaces/inkscape"
   xmlns:sodipodi="http://sodipodi.sourceforge.net/DTD/sodipodi-0.dtd"
   xmlns="http://www.w3.org/2000/svg"
   xmlns:svg="http://www.w3.org/2000/svg">
  <defs
     id="defs38" />
  <sodipodi:namedview
     id="namedview36"
     pagecolor="#ffffff"
     bordercolor="#666666"
     borderopacity="1.0"
     inkscape:pageshadow="2"
     inkscape:pageopacity="0.0"
     inkscape:pagecheckerboard="0"
     showgrid="false"
     showguides="true"
     inkscape:guide-bbox="true"
     inkscape:zoom="20.48"
     inkscape:cx="6.3720703"
     inkscape:cy="9.0576172"
     inkscape:window-width="1563"
     inkscape:window-height="1088"
     inkscape:window-x="803"
     inkscape:window-y="205"
     inkscape:window-maximized="0"
     inkscape:current-layer="svg34">
    <sodipodi:guide
       position="-269.40769,899.40492"
       orientation="1,0"
       id="guide1246" />
  </sodipodi:namedview>
  <g
     id="g1352"
     transform="translate(5.1077009,2.5484502)">
    <path
       d="M -1.287305,0.00727 A 0.80317445,0.80317445 0 0 0 -2.0904383,0.8104 v 0.7047 h -1.6321192 a 0.80317445,0.80317445 0 0 0 -0.8032733,0.80314 v 7.86811 a 1.3515191,1.3515191 0 0 0 1.3515553,1.35156 h 9.4869711 a 0.80317445,0.80317445 0 0 0 0.80314,-0.80314 V 0.8104 a 0.80317445,0.80317445 0 0 0 -0.80314,-0.80313 z m 0,0.26771 h 7.6000006 a 0.53544963,0.53544963 0 0 1 0.535562,0.53542 v 9.92437 a 0.53544963,0.53544963 0 0 1 -0.535562,0.53542 H -2.366767 a 1.3515191,1.3515191 0 0 0 0.5440398,-1.08384 V 0.8104 A 0.53544963,0.53544963 0 0 1 -1.287305,0.27498 Z m -2.4352525,1.50783 h 1.6321192 v 8.40354 a 1.0837943,1.0837943 0 0 1 -2.1675414,0 V 2.31824 a 0.53544964,0.53544964 0 0 1 0.5354222,-0.53543 z"
       fill="#000000"
       stroke="none"
       id="path2" />
    <path
       d="m -0.77153901,1.6167613 a 0.13386241,0.13386241 0 0 0 -0.12402344,0.1338419 v 2.9801799 a 0.13386241,0.13386241 0 0 0 0.13384186,0.1338418 H 2.2494652 A 0.13386241,0.13386241 0 0 0 2.3833071,4.7307831 V 1.7506032 A 0.13386241,0.13386241 0 0 0 2.2494652,1.6167613 h -3.01118579 a 0.13386241,0.13386241 0 0 0 -0.009818,0 z m 0.2180746,0.2676839 a 0.08031746,0.08031746 0 0 1 0.005683,0 H 2.0355237 a 0.08031746,0.08031746 0 0 1 0.080098,0.080098 v 2.6323975 h -2.6634022 a 0.08031746,0.08031746 0 0 1 -0.0800984,-0.080099 v -2.552298 a 0.08031746,0.08031746 0 0 1 0.0744145,-0.080098 z"
       fill="#000000"
       stroke="none"
       id="path4"
       style="stroke-width:0.264583" />
    <path
       d="M 5.7107656,1.78643 H 3.4179883 a 0.2634551,0.2634551 0 0 0 0,0.52691 h 2.2927773 a 0.2634551,0.2634551 0 0 0 0,-0.52691 z"
       fill="#000000"
       stroke="none"
       id="path6" />
    <path
       d="M 5.7107656,2.97719 H 3.4179883 a 0.2634551,0.2634551 0 0 0 0,0.5269 h 2.2927773 a 0.2634551,0.2634551 0 0 0 0,-0.5269 z"
       fill="#000000"
       stroke="none"
       id="path8" />
    <path
       d="M 5.7107656,4.69484 H 3.4179883 a 0.2634551,0.2634551 0 0 1 0,-0.52691 h 2.2927773 a 0.2634551,0.2634551 0 0 1 0,0.52691 z"
       fill="#000000"
       stroke="none"
       id="path10" />
    <path
       d="m -0.654195,5.8856 h 6.3649606 a 0.2634551,0.2634551 0 0 0 0,-0.52691 H -0.654195 a 0.2634551,0.2634551 0 0 0 0,0.52691 z"
       fill="#000000"
       stroke="none"
       id="path12" />
    <path
       d="m -0.654195,7.07635 h 6.3649606 a 0.26345538,0.26345538 0 0 0 0,-0.52691 H -0.654195 a 0.26345538,0.26345538 0 0 0 0,0.52691 z"
       fill="#000000"
       stroke="none"
       id="path14" />
    <path
       d="M 1.6385297,7.7402 H -0.654195 a 0.26345538,0.26345538 0 0 0 0,0.52691 h 2.2927247 a 0.26345538,0.26345538 0 0 0 0,-0.52691 z"
       fill="#000000"
       stroke="none"
       id="path22" />
    <path
       d="M 1.6385297,9.45786 H -0.654195 a 0.2634551,0.2634551 0 0 1 0,-0.52691 h 2.2927247 a 0.2634551,0.2634551 0 0 1 0,0.52691 z"
       fill="#000000"
       stroke="none"
       id="path24" />
    <path
       d="M 1.6385297,10.64862 H -0.654195 a 0.26345538,0.26345538 0 0 1 0,-0.52691 h 2.2927247 a 0.26345538,0.26345538 0 0 1 0,0.52691 z"
       fill="#000000"
       stroke="none"
       id="path26" />
    <path
       d="M 5.2071099,10.020432 C 4.9825757,10.202188 4.686551,10.27499 4.4012148,10.218628 4.2082279,10.180559 4.0397678,10.066095 3.9355371,9.9022137 3.881985,9.8179008 3.8381869,9.7279859 3.8049565,9.6341388 H 4.7108784 L 4.8016877,9.4302112 H 3.7504804 C 3.7237371,9.283361 3.7222533,9.1331512 3.7460904,8.9858197 H 4.7109023 L 4.8017361,8.7818921 H 3.7961043 c 0.03416,-0.1031217 0.080991,-0.2017758 0.139457,-0.2937848 0.1042363,-0.1638863 0.2727061,-0.2783507 0.4657022,-0.316414 0.2853279,-0.056357 0.581342,0.016444 0.8058705,0.1981938 0.046635,0.037674 0.1169129,0.00515 0.1169499,-0.054139 V 8.0969812 C 5.3240831,8.0467629 5.296743,8.0003746 5.2523925,7.9753314 4.9735849,7.8178841 4.6459157,7.7654125 4.3305719,7.8277136 4.041212,7.8849008 3.7886548,8.0565876 3.6323846,8.3023376 3.538061,8.450629 3.4642176,8.62694 3.4205493,8.7964179 L 2.9557289,8.7818894 2.8649199,8.985817 h 0.5201289 c -0.018842,0.1476295 -0.017696,0.2970572 0.00341,0.4443915 h -0.43273 l -0.090809,0.2039276 h 0.5660457 c 0.044033,0.1601826 0.1119121,0.3131113 0.2014431,0.4538439 0.1562704,0.24575 0.4088276,0.417437 0.6981876,0.474624 0.3153359,0.0623 0.6429956,0.0098 0.9217961,-0.147618 0.044353,-0.02504 0.071691,-0.07143 0.071691,-0.121652 V 10.074566 C 5.324029,10.015316 5.2537913,9.98279 5.2071579,10.020426 Z"
       fill="#000000"
       stroke="none"
       id="path2-3"
       style="fill:none;stroke:#000000;stroke-width:0.120785;stroke-miterlimit:4;stroke-dasharray:none;stroke-opacity:1"
       sodipodi:nodetypes="ccccccccccccccccccccccccccccccsccc" />
  </g>
</svg>
