<?xml version="1.0" encoding="UTF-8" standalone="no"?>
<svg
   viewBox="0 0 10 10"
   version="1.1"
   x="0px"
   y="0px"
   id="svg1585"
   sodipodi:docname="kpl.svg"
   inkscape:version="1.1.1 (3bf5ae0d25, 2021-09-20)"
   xmlns:inkscape="http://www.inkscape.org/namespaces/inkscape"
   xmlns:sodipodi="http://sodipodi.sourceforge.net/DTD/sodipodi-0.dtd"
   xmlns="http://www.w3.org/2000/svg"
   xmlns:svg="http://www.w3.org/2000/svg">
  <defs
     id="defs1589" />
  <sodipodi:namedview
     id="namedview1587"
     pagecolor="#ffffff"
     bordercolor="#666666"
     borderopacity="1.0"
     inkscape:pageshadow="2"
     inkscape:pageopacity="0.0"
     inkscape:pagecheckerboard="0"
     showgrid="false"
     inkscape:zoom="20.511664"
     inkscape:cx="-9.5799151"
     inkscape:cy="-4.2658655"
     inkscape:window-width="1563"
     inkscape:window-height="1088"
     inkscape:window-x="1911"
     inkscape:window-y="736"
     inkscape:window-maximized="0"
     inkscape:current-layer="svg1585" />
  <g
     transform="translate(-0.4475231,-285.26397)"
     id="g1579">
    <path
       d="m 3.1527787,285.33033 a 1.0029522,1.0029522 0 0 0 -1.0030354,1.00304 v 6.38204 H 0.5291704 v 1.40249 a 0.97953747,0.97953747 0 0 0 0.9797785,0.97979 H 7.153067 v -0.33848 H 2.2494912 a 0.97953747,0.97953747 0 0 0 0.2387336,-0.64131 v -7.78453 a 0.6644124,0.6644124 0 0 1 1.3286051,0 v 0.46457 h 4.8973846 v 3.68143 h 0.3384814 v -3.68143 h 1.0123221 v -0.56483 a 0.90283579,0.90283579 0 0 0 -0.9027846,-0.90278 z m 0.7513902,0.33848 h 5.2580645 a 0.56427234,0.56427234 0 0 1 0.5643033,0.5643 v 0.22635 H 4.1553114 v -0.12609 a 1.0029522,1.0029522 0 0 0 -0.2511425,-0.66456 z m -3.03651705,7.38507 H 2.1497433 v 1.06402 a 0.64104573,0.64104573 0 0 1 -1.28209145,0 z"
       fill="#000000"
       stroke="none"
       id="path1543" />
    <path
       d="m 4.1422,291.47044 v -1.2896 h 0.3356 v 1.2896 z"
       fill="#000000"
       stroke="none"
       id="path1545" />
    <path
       d="m 4.9187,289.67482 h 0.3355 v 1.79562 H 4.9187 Z"
       fill="#000000"
       stroke="none"
       id="path1547" />
    <path
       d="m 5.6952,290.56346 h 0.3355 v 0.90698 H 5.6952 Z"
       fill="#000000"
       stroke="none"
       id="path1549" />
    <path
       d="m 6.8072,289.87605 v 1.59439 H 6.4716 v -1.59439 z"
       fill="#000000"
       stroke="none"
       id="path1551" />
    <path
       d="m 5.6317,289.92453 a 0.35161884,0.35161884 0 0 0 0.5788,0.0229 l 0.5682,-0.75931 0.084,0.0631 0.012,-0.3388 -0.3216,0.10728 0.084,0.0631 -0.5682,0.75932 a 0.17580946,0.17580946 0 0 1 -0.2894,-0.0115 L 5.396,289.22343 a 0.35161884,0.35161884 0 0 0 -0.5677,-0.0369 l -0.4946,0.59528 0.1352,0.11235 0.4946,-0.59528 a 0.17580946,0.17580946 0 0 1 0.2838,0.0185 z"
       fill="#000000"
       stroke="none"
       id="path1553" />
    <path
       d="m 3.8765,291.84067 a 0.117335,0.117335 0 0 0 0,0.23467 H 7.205 a 0.117335,0.117335 0 0 0 0,-0.23467 z"
       fill="#000000"
       stroke="none"
       id="path1555" />
    <path
       d="m 7.9605,293.72558 v -0.34667 a 4.4201472,4.4201472 0 0 0 1.3822,0.2237 0.32599186,0.32599186 0 0 0 -0.1608,0.28106 v 0.0624 a 4.4201472,4.4201472 0 0 1 -1.2214,-0.22054 z"
       fill="#000000"
       stroke="none"
       id="path1557" />
    <path
       d="m 8.0297,291.34333 a 0.14056934,0.14056934 0 0 0 0.011,0.26454 4.4201472,4.4201472 0 0 0 2.6158,0 0.14056934,0.14056934 0 0 0 0.011,-0.26454 3.510892,3.510892 0 0 0 -2.6382,0 z"
       fill="#000000"
       stroke="none"
       id="path1559" />
    <path
       d="m 10.7639,292.11086 a 4.4201472,4.4201472 0 0 1 -2.8034,0.009 v -0.34667 a 4.4201472,4.4201472 0 0 0 2.8034,-0.009 z"
       fill="#000000"
       stroke="none"
       id="path1561" />
    <path
       d="m 10.7639,292.64611 a 4.4201472,4.4201472 0 0 1 -2.8034,0.009 v -0.34667 a 4.4201472,4.4201472 0 0 0 2.8034,-0.009 z"
       fill="#000000"
       stroke="none"
       id="path1563" />
    <path
       d="m 7.9605,292.84366 v 0.34666 a 4.4201472,4.4201472 0 0 0 2.8034,-0.009 v -0.34667 a 4.4201472,4.4201472 0 0 1 -2.8034,0.009 z"
       fill="#000000"
       stroke="none"
       id="path1565" />
    <path
       d="m 9.1819,294.48138 v -0.34667 a 4.4201472,4.4201472 0 0 1 -1.2214,-0.22054 v 0.34667 a 4.4201472,4.4201472 0 0 0 1.2214,0.22054 z"
       fill="#000000"
       stroke="none"
       id="path1567" />
    <path
       d="m 7.9605,294.44943 v 0.25097 a 0.32439081,0.32439081 0 0 0 0.2401,0.31326 4.4201472,4.4201472 0 0 0 0.9813,0.14859 v -0.49228 a 4.4201472,4.4201472 0 0 1 -1.2214,-0.22054 z"
       fill="#000000"
       stroke="none"
       id="path1569" />
    <path
       d="m 9.3674,294.52988 a 4.4201472,4.4201472 0 0 0 2.8034,-0.009 v -0.34666 a 4.4201472,4.4201472 0 0 1 -2.8034,0.009 z"
       fill="#000000"
       stroke="none"
       id="path1571" />
    <path
       d="m 9.3674,295.06514 v -0.34667 a 4.4201472,4.4201472 0 0 0 2.8034,-0.009 v 0.34666 a 4.4201472,4.4201472 0 0 1 -2.8034,0.009 z"
       fill="#000000"
       stroke="none"
       id="path1573" />
    <path
       d="m 9.6075,295.81796 a 4.4201472,4.4201472 0 0 0 2.3253,-0.008 0.32439081,0.32439081 0 0 0 0.238,-0.31267 v -0.25263 a 4.4201472,4.4201472 0 0 1 -2.8034,0.009 v 0.25097 a 0.32439081,0.32439081 0 0 0 0.2401,0.31326 z"
       fill="#000000"
       stroke="none"
       id="path1575" />
    <path
       d="m 9.4366,293.7534 a 0.14056934,0.14056934 0 0 0 0.011,0.26455 4.4201472,4.4201472 0 0 0 2.6158,0 0.14056934,0.14056934 0 0 0 0.011,-0.26455 3.510892,3.510892 0 0 0 -2.6382,0 z"
       fill="#000000"
       stroke="none"
       id="path1577" />
  </g>
</svg>
