<svg xmlns:dc="http://purl.org/dc/elements/1.1/" xmlns:cc="http://creativecommons.org/ns#" xmlns:rdf="http://www.w3.org/1999/02/22-rdf-syntax-ns#" xmlns:svg="http://www.w3.org/2000/svg" xmlns="http://www.w3.org/2000/svg" xmlns:sodipodi="http://sodipodi.sourceforge.net/DTD/sodipodi-0.dtd" xmlns:inkscape="http://www.inkscape.org/namespaces/inkscape" viewBox="0 0 12.7 15.875" version="1.1" x="0px" y="0px"><g transform="translate(0,-284.29998)"><path style="" d="m 3.1717562,285.6006 a 0.65533375,0.65533375 0 0 0 -0.6551083,0.65526 v 0.57516 H 1.1855292 a 0.65533375,0.65533375 0 0 0 -0.65643128,0.65526 v 6.41976 a 1.1027444,1.1027444 0 0 0 1.10331248,1.10278 h 6.6973978 v -0.21808 H 2.2912229 a 1.1027444,1.1027444 0 0 0 0.4439708,-0.8847 v -7.65018 a 0.43688918,0.43688918 0 0 1 0.4365625,-0.43666 h 6.2013041 a 0.43688918,0.43688918 0 0 1 0.4365625,0.43666 v 4.96094 h 0.2185462 v -4.96094 A 0.65533375,0.65533375 0 0 0 9.3730603,285.6006 Z m -1.986227,1.44901 h 1.3311187 v 6.85643 a 0.88454999,0.88454999 0 0 1 -1.76900415,0 v -6.41976 a 0.43688918,0.43688918 0 0 1 0.43788545,-0.43667 z" fill="#000000" stroke="none"/><path style="" d="m 9.9322,293.82552 a 0.25806526,0.25806526 0 0 0 -0.1274,0.2225 v 0.0494 a 3.4991253,3.4991253 0 0 1 -0.9667,-0.17459 v -0.27443 a 3.4991253,3.4991253 0 0 0 1.0941,0.17708 z" fill="#000000" stroke="none"/><path style="" d="m 10.9725,292.24643 a 0.11127904,0.11127904 0 0 0 0.01,-0.20942 2.7793308,2.7793308 0 0 0 -2.0889,0 0.11127904,0.11127904 0 0 0 0.01,0.20942 3.4991253,3.4991253 0 0 0 2.0707,0 z" fill="#000000" stroke="none"/><path style="" d="m 8.8381,292.65169 v -0.27443 a 3.4991253,3.4991253 0 0 0 2.2191,-0.007 v 0.27443 a 3.4991253,3.4991253 0 0 1 -2.2191,0.007 z" fill="#000000" stroke="none"/><path style="" d="m 8.8381,293.07542 v -0.27444 a 3.4991253,3.4991253 0 0 0 2.2191,-0.007 v 0.27443 a 3.4991253,3.4991253 0 0 1 -2.2191,0.007 z" fill="#000000" stroke="none"/><path style="" d="m 8.8381,293.22471 v 0.27444 a 3.4991253,3.4991253 0 0 0 2.2191,-0.007 v -0.27444 a 3.4991253,3.4991253 0 0 1 -2.2191,0.007 z" fill="#000000" stroke="none"/><path style="" d="m 9.8048,294.52119 v -0.27443 a 3.4991253,3.4991253 0 0 1 -0.9667,-0.17459 v 0.27443 a 3.4991253,3.4991253 0 0 0 0.9667,0.17459 z" fill="#000000" stroke="none"/><path style="" d="m 8.8381,294.49589 v 0.19869 a 0.25679776,0.25679776 0 0 0 0.1904,0.24797 3.4991253,3.4991253 0 0 0 0.7763,0.11763 v -0.3897 a 3.4991253,3.4991253 0 0 1 -0.9667,-0.17459 z" fill="#000000" stroke="none"/><path style="" d="m 12.171,294.55249 v -0.27443 a 3.4991253,3.4991253 0 0 1 -2.2192,0.007 v 0.27444 a 3.4991253,3.4991253 0 0 0 2.2192,-0.007 z" fill="#000000" stroke="none"/><path style="" d="m 12.171,294.70179 v 0.27443 a 3.4991253,3.4991253 0 0 1 -2.2192,0.007 v -0.27443 a 3.4991253,3.4991253 0 0 0 2.2192,-0.007 z" fill="#000000" stroke="none"/><path style="" d="m 11.9826,295.57302 a 0.25679776,0.25679776 0 0 0 0.1884,-0.24752 v -0.19998 a 3.4991253,3.4991253 0 0 1 -2.2192,0.007 v 0.19868 a 0.25679776,0.25679776 0 0 0 0.1904,0.24798 3.4991253,3.4991253 0 0 0 1.8404,-0.006 z" fill="#000000" stroke="none"/><path style="" d="m 12.0863,294.15432 a 0.11127904,0.11127904 0 0 0 0.01,-0.20942 2.7793308,2.7793308 0 0 0 -2.089,0 0.11127904,0.11127904 0 0 0 0.01,0.20942 3.4991253,3.4991253 0 0 0 2.0708,0 z" fill="#000000" stroke="none"/><path style="" d="m 4.2318,288.13466 h 0.3829 v 1.47007 H 4.2318 Z" fill="#000000" stroke="none"/><path style="" d="m 5.4995,287.55782 v 2.04691 H 5.1173 v -2.04691 z" fill="#000000" stroke="none"/><path style="" d="m 6.3844,288.57083 v 1.0339 H 6.0022 v -1.0339 z" fill="#000000" stroke="none"/><path style="" d="M 7.27,289.60473 H 6.887 v -1.81751 H 7.27 Z" fill="#000000" stroke="none"/><path style="" d="m 5.4925,287.15031 0.4376,0.69218 a 0.40082744,0.40082744 0 0 0 0.6594,0.0261 l 0.6476,-0.86558 0.097,0.0719 0.014,-0.38621 -0.3669,0.1223 0.096,0.0719 -0.6475,0.86558 A 0.20041368,0.20041368 0 0 1 6.1,287.73538 l -0.4376,-0.69217 a 0.40082744,0.40082744 0 0 0 -0.6468,-0.0421 l -0.5642,0.67859 0.154,0.12808 0.5642,-0.67859 a 0.20041368,0.20041368 0 0 1 0.3234,0.0211 z" fill="#000000" stroke="none"/><path style="" d="m 3.9286,290.2943 h 3.795 a 0.13376,0.13376 0 0 0 0,-0.26752 h -3.795 a 0.13376,0.13376 0 0 0 0,0.26752 z" fill="#000000" stroke="none"/><path style="" d="m 5.6228,294.07582 a 1.4359718,1.4359718 0 0 0 0.9996,-0.1631 0.15507362,0.15507362 0 0 0 0.078,-0.13441 v -0.24172 a 0.07753681,0.07753681 0 0 0 -0.1274,-0.0598 1.0482877,1.0482877 0 0 1 -0.8736,0.21899 0.77536815,0.77536815 0 0 1 -0.5048,-0.34961 1.4755469,1.4755469 0 0 1 -0.1421,-0.2962 h 0.9829 l 0.099,-0.22531 H 4.994 a 1.4755469,1.4755469 0 0 1 -0.01,-0.49101 h 1.0466 l 0.099,-0.22532 H 5.0389 a 1.4755469,1.4755469 0 0 1 0.1512,-0.3246 0.77536815,0.77536815 0 0 1 0.5047,-0.34961 1.0482877,1.0482877 0 0 1 0.8737,0.21898 0.07753681,0.07753681 0 0 0 0.1274,-0.0598 v -0.24172 a 0.15507362,0.15507362 0 0 0 -0.078,-0.13441 1.4359718,1.4359718 0 0 0 -0.9997,-0.16311 1.1630523,1.1630523 0 0 0 -0.7574,0.52442 1.863231,1.863231 0 0 0 -0.2254,0.52986 H 4.1271 l -0.099,0.22532 h 0.5643 a 1.863231,1.863231 0 0 0 0.01,0.49101 H 4.1327 l -0.099,0.22531 h 0.6139 a 1.863231,1.863231 0 0 0 0.2184,0.50146 1.1630523,1.1630523 0 0 0 0.7574,0.52441 z" fill="#000000" stroke="none"/></g></svg>
