<?xml version="1.0" encoding="UTF-8" standalone="no"?>
<svg
   viewBox="0 0 12.7 15.875"
   version="1.1"
   x="0px"
   y="0px"
   id="svg1122"
   sodipodi:docname="ledger.svg"
   inkscape:version="1.1.1 (3bf5ae0d25, 2021-09-20)"
   xmlns:inkscape="http://www.inkscape.org/namespaces/inkscape"
   xmlns:sodipodi="http://sodipodi.sourceforge.net/DTD/sodipodi-0.dtd"
   xmlns="http://www.w3.org/2000/svg"
   xmlns:svg="http://www.w3.org/2000/svg">
  <defs
     id="defs1126" />
  <sodipodi:namedview
     id="namedview1124"
     pagecolor="#ffffff"
     bordercolor="#666666"
     borderopacity="1.0"
     inkscape:pageshadow="2"
     inkscape:pageopacity="0.0"
     inkscape:pagecheckerboard="0"
     showgrid="false"
     inkscape:zoom="14.503937"
     inkscape:cx="13.582519"
     inkscape:cy="-0.89630836"
     inkscape:window-width="3840"
     inkscape:window-height="2057"
     inkscape:window-x="0"
     inkscape:window-y="28"
     inkscape:window-maximized="1"
     inkscape:current-layer="svg1122" />
  <g
     transform="translate(0,-284.29998)"
     id="g1116">
    <path
       style=""
       d="m 3.1121,285.97247 a 0.2857582,0.2857582 0 0 0 -0.2858,0.28577 v 0.3328 h 0.4104 a 0.90149533,0.90149533 0 0 1 0,1.80299 H 2.9509 v 0.68316 h 0.2858 a 0.90149547,0.90149547 0 0 1 0,1.80299 H 2.9509 v 0.68317 h 0.2858 a 0.901495,0.901495 0 0 1 0,1.80299 H 2.9509 v 0.68316 h 0.2858 a 0.90146499,0.90146499 0 0 1 0,1.80247 H 2.8263 v 0.3328 a 0.2857582,0.2857582 0 0 0 0.2858,0.28577 h 6.7872 a 0.2857582,0.2857582 0 0 0 0.2858,-0.28577 v -9.92653 a 0.2857582,0.2857582 0 0 0 -0.2858,-0.28577 z m 3.6024,1.2821 h 0.7917 v 0.49092 a 1.1236328,1.1236328 0 0 1 0.7276,1.05162 H 7.454 a 0.34387369,0.34387369 0 1 0 -0.4853,0.31316 l 0.6108,0.32504 a 1.1236328,1.1236328 0 0 1 -0.073,2.02106 v 0.51367 H 6.7148 v -0.47077 a 1.1236328,1.1236328 0 0 1 -0.7845,-1.07126 h 0.7793 a 0.34387369,0.34387369 0 1 0 0.5049,-0.30385 L 6.584,289.78981 a 1.1236328,1.1236328 0 0 1 0.1303,-2.04432 z m -1.2682,5.71489 h 3.22 a 0.18917046,0.18917046 0 0 1 0,0.37827 h -3.22 a 0.18917046,0.18917046 0 0 1 0,-0.37827 z m 0,0.9617 h 3.22 a 0.18917,0.18917 0 0 1 0,0.37827 h -3.22 a 0.18917,0.18917 0 0 1 0,-0.37827 z m 0,0.9617 h 3.22 a 0.18917047,0.18917047 0 0 1 0,0.37827 h -3.22 a 0.18917047,0.18917047 0 0 1 0,-0.37827 z"
       fill="#000000"
       stroke="none"
       id="path1104" />
    <path
       style=""
       d="m 2.3977,295.42357 h 0.8388 a 0.47282505,0.47282505 0 0 0 0,-0.94565 h -1.392 a 0.47282505,0.47282505 0 0 0 0,0.94565 z"
       fill="#000000"
       stroke="none"
       id="path1106" />
    <path
       style=""
       d="m 2.3977,292.93747 h 0.8388 a 0.47282505,0.47282505 0 0 0 0,-0.94565 h -1.392 a 0.47282505,0.47282505 0 0 0 0,0.94565 z"
       fill="#000000"
       stroke="none"
       id="path1108" />
    <path
       style=""
       d="m 2.3977,290.45138 h 0.8388 a 0.47282505,0.47282505 0 0 0 0,-0.94565 h -1.392 a 0.47282505,0.47282505 0 0 0 0,0.94565 z"
       fill="#000000"
       stroke="none"
       id="path1110" />
    <path
       style=""
       d="m 2.3977,287.96528 h 0.8388 a 0.47282629,0.47282629 0 0 0 0,-0.94565 h -1.392 a 0.47282629,0.47282629 0 0 0 0,0.94565 z"
       fill="#000000"
       stroke="none"
       id="path1112" />
    <path
       style=""
       d="m 10.6138,295.02968 v -8.77147 A 0.71439548,0.71439548 0 0 0 9.8994,285.54382 H 2.6151 a 1.3084615,1.3084615 0 0 1 0.6764,-0.7144 h 6.6079 a 1.428791,1.428791 0 0 1 1.4288,1.42879 v 7.94511 a 1.3084615,1.3084615 0 0 1 -0.7144,0.82636 z"
       fill="#000000"
       stroke="none"
       id="path1114" />
  </g>
</svg>
