<svg xmlns:dc="http://purl.org/dc/elements/1.1/" xmlns:cc="http://creativecommons.org/ns#" xmlns:rdf="http://www.w3.org/1999/02/22-rdf-syntax-ns#" xmlns:svg="http://www.w3.org/2000/svg" xmlns="http://www.w3.org/2000/svg" xmlns:sodipodi="http://sodipodi.sourceforge.net/DTD/sodipodi-0.dtd" xmlns:inkscape="http://www.inkscape.org/namespaces/inkscape" viewBox="0 0 12.7 15.875" version="1.1" x="0px" y="0px"><g transform="translate(0,-284.29998)"><path style="" d="m 6.3403,285.25969 a 0.24876124,0.24876124 0 0 0 -0.2387,0.2465 v 1.20251 a 1.1045155,1.1045155 0 0 0 -0.8279,0.82734 H 3.0723 a 0.66921474,0.66921474 0 1 0 -1.2273,0.53175 l -1.3074,3.02462 a 1.9153064,1.9153064 0 1 0 3.8096,-0.0408 L 3.0429,288.0337 h 2.2308 a 1.1045155,1.1045155 0 0 0 0.8279,0.82734 v 5.60741 h -2.342 v 0.32815 a 1.2437865,1.2437865 0 0 0 1.2433,1.24385 h 2.6939 a 1.2437865,1.2437865 0 0 0 1.2439,-1.24385 v -0.32815 h -2.342 v -5.60741 A 1.1045155,1.1045155 0 0 0 7.426,288.0337 h 2.2314 l -1.3043,3.01791 a 1.9153064,1.9153064 0 1 0 3.8091,0.0408 l -1.3069,-3.02462 A 0.66921474,0.66921474 0 1 0 9.6275,287.53604 H 7.426 A 1.1045155,1.1045155 0 0 0 6.5987,286.7087 v -1.20251 a 0.24876124,0.24876124 0 0 0 -0.2584,-0.2465 z m -4.1052,3.15847 a 0.66921474,0.66921474 0 0 0 0.4321,0 l 1.2335,2.85409 H 1.0021 Z m 7.798,0 a 0.66921474,0.66921474 0 0 0 0.432,0 l 1.233,2.85409 H 8.7996 Z" fill="#000000" stroke="none"/></g><text x="0" y="27.7" fill="#000000" font-size="5px" font-weight="bold" font-family="'Helvetica Neue', Helvetica, Arial-Unicode, Arial, Sans-serif">Created by Phạm Thanh Lộc</text><text x="0" y="32.7" fill="#000000" font-size="5px" font-weight="bold" font-family="'Helvetica Neue', Helvetica, Arial-Unicode, Arial, Sans-serif">from the Noun Project</text></svg>