<svg xmlns:dc="http://purl.org/dc/elements/1.1/" xmlns:cc="http://creativecommons.org/ns#" xmlns:rdf="http://www.w3.org/1999/02/22-rdf-syntax-ns#" xmlns:svg="http://www.w3.org/2000/svg" xmlns="http://www.w3.org/2000/svg" xmlns:sodipodi="http://sodipodi.sourceforge.net/DTD/sodipodi-0.dtd" xmlns:inkscape="http://www.inkscape.org/namespaces/inkscape" viewBox="0 0 12.7 15.875" version="1.1" x="0px" y="0px"><g transform="translate(0,-284.29998)"><path style="" d="m 6.3405,285.25995 a 0.24876125,0.24876125 0 0 0 -0.2393,0.24598 v 1.20303 A 1.1045156,1.1045156 0 0 0 5.2739,287.5363 H 3.0725 a 0.66921474,0.66921474 0 1 0 -1.2278,0.53175 l -1.3069,3.0241 a 1.9153065,1.9153065 0 1 0 3.809,-0.0408 L 3.043,288.03344 h 2.2309 a 1.1045156,1.1045156 0 0 0 0.8273,0.82786 v 5.60689 H 3.7593 v 0.32815 a 1.2437865,1.2437865 0 0 0 1.2438,1.24385 H 7.697 a 1.2437865,1.2437865 0 0 0 1.2439,-1.24385 v -0.32815 h -2.342 v -5.60689 a 1.1045156,1.1045156 0 0 0 0.8273,-0.82786 h 2.2309 l -1.3043,3.01791 a 1.9153065,1.9153065 0 1 0 3.8096,0.0408 l -1.3069,-3.0241 A 0.66921474,0.66921474 0 1 0 9.6276,287.5363 H 7.4262 a 1.1045156,1.1045156 0 0 0 -0.8273,-0.82734 v -1.20303 a 0.24876125,0.24876125 0 0 0 -0.2584,-0.24598 z m 0,1.91513 a 0.60700763,0.60700763 0 0 1 0.6216,0.60978 0.60700763,0.60700763 0 1 1 -1.2138,0 0.60700763,0.60700763 0 0 1 0.5922,-0.60978 z m 3.7403,2.72748 h 0.3943 v 0.24443 a 0.55944163,0.55944163 0 0 1 0.3623,0.52348 h -0.3881 a 0.17121009,0.17121009 0 1 0 -0.2419,0.15607 l 0.3049,0.16174 a 0.55944163,0.55944163 0 0 1 -0.037,1.00614 v 0.2558 H 10.081 v -0.23461 a 0.55944163,0.55944163 0 0 1 -0.3901,-0.5333 h 0.3875 a 0.17121009,0.17121009 0 1 0 0.2517,-0.15141 l -0.3142,-0.1664 a 0.55944163,0.55944163 0 0 1 0.065,-1.01751 z m -7.6378,0.41135 a 2.5839509,2.5839509 0 0 1 1.0093,0.18913 0.1034564,0.1034564 0 0 1 -0.01,0.19482 v 0 a 3.2531457,3.2531457 0 0 1 -1.925,0 0.1034564,0.1034564 0 0 1 -0.01,-0.19482 2.5839509,2.5839509 0 0 1 0.9323,-0.18913 z m 1.078,0.49919 v 0.25476 a 3.2531457,3.2531457 0 0 1 -2.0629,0.007 v -0.25528 a 3.2531457,3.2531457 0 0 0 2.0629,-0.007 z m 0,0.39326 v 0.25528 a 3.2531457,3.2531457 0 0 1 -2.0629,0.007 v -0.25477 a 3.2531457,3.2531457 0 0 0 2.0629,-0.007 z m 0,0.39429 v 0.18603 a 0.23874552,0.23874552 0 0 1 -0.1752,0.22996 3.2531457,3.2531457 0 0 1 -1.7115,0.006 0.23874552,0.23874552 0 0 1 -0.1762,-0.23099 v -0.18448 a 3.2531457,3.2531457 0 0 0 2.0629,-0.007 z" fill="#000000" stroke="none"/></g><text x="0" y="27.7" fill="#000000" font-size="5px" font-weight="bold" font-family="'Helvetica Neue', Helvetica, Arial-Unicode, Arial, Sans-serif">Created by Phạm Thanh Lộc</text><text x="0" y="32.7" fill="#000000" font-size="5px" font-weight="bold" font-family="'Helvetica Neue', Helvetica, Arial-Unicode, Arial, Sans-serif">from the Noun Project</text></svg>