<svg xmlns:dc="http://purl.org/dc/elements/1.1/" xmlns:cc="http://creativecommons.org/ns#" xmlns:rdf="http://www.w3.org/1999/02/22-rdf-syntax-ns#" xmlns:svg="http://www.w3.org/2000/svg" xmlns="http://www.w3.org/2000/svg" xmlns:sodipodi="http://sodipodi.sourceforge.net/DTD/sodipodi-0.dtd" xmlns:inkscape="http://www.inkscape.org/namespaces/inkscape" viewBox="0 0 12.7 15.875" version="1.1" x="0px" y="0px"><g transform="translate(0,-284.29998)"><path style="" d="m 3.1713,285.60051 a 0.65533372,0.65533372 0 0 0 -0.6553,0.65578 v 0.57464 H 1.1843 a 0.65533372,0.65533372 0 0 0 -0.6552,0.65525 v 6.42028 a 1.1027443,1.1027443 0 0 0 1.1027,1.10226 h 6.6973 v -0.21807 H 2.2907 a 1.1027443,1.1027443 0 0 0 0.4439,-0.88419 v -7.65017 a 0.43688918,0.43688918 0 0 1 0.4367,-0.43719 h 6.2011 a 0.43688918,0.43688918 0 0 1 0.4372,0.43719 v 4.96042 h 0.2181 v -4.96042 a 0.65533372,0.65533372 0 0 0 -0.6553,-0.65578 z m -1.987,1.44901 H 2.516 v 6.85694 a 0.88429998,0.88429998 0 0 1 -1.7683,0 v -6.42028 a 0.43688918,0.43688918 0 0 1 0.4366,-0.43666 z" fill="#000000" stroke="none"/><path style="" d="m 9.932,293.82548 a 0.25806526,0.25806526 0 0 0 -0.1273,0.2225 v 0.0494 a 3.4991252,3.4991252 0 0 1 -0.9669,-0.17459 v -0.27443 a 3.4991252,3.4991252 0 0 0 1.0942,0.17708 z" fill="#000000" stroke="none"/><path style="" d="m 8.8926,292.03697 a 0.11127904,0.11127904 0 0 0 0.01,0.20942 3.4991252,3.4991252 0 0 0 2.0707,0 0.11127904,0.11127904 0 0 0 0.01,-0.20942 2.7793307,2.7793307 0 0 0 -2.0884,0 z" fill="#000000" stroke="none"/><path style="" d="m 8.8378,292.37722 a 3.4991252,3.4991252 0 0 0 2.2193,-0.007 v 0.27443 a 3.4991252,3.4991252 0 0 1 -2.2193,0.007 z" fill="#000000" stroke="none"/><path style="" d="m 11.0571,293.06829 a 3.4991252,3.4991252 0 0 1 -2.2193,0.007 v -0.27443 a 3.4991252,3.4991252 0 0 0 2.2193,-0.007 z" fill="#000000" stroke="none"/><path style="" d="m 11.0571,293.49202 v -0.27443 a 3.4991252,3.4991252 0 0 1 -2.2193,0.007 v 0.27443 a 3.4991252,3.4991252 0 0 0 2.2193,-0.007 z" fill="#000000" stroke="none"/><path style="" d="m 9.8047,294.52115 v -0.27444 a 3.4991252,3.4991252 0 0 1 -0.9669,-0.17459 v 0.27443 a 3.4991252,3.4991252 0 0 0 0.9669,0.1746 z" fill="#000000" stroke="none"/><path style="" d="m 9.8047,295.06014 v -0.3897 a 3.4991252,3.4991252 0 0 1 -0.9669,-0.17459 v 0.19868 a 0.25679776,0.25679776 0 0 0 0.1901,0.24798 3.4991252,3.4991252 0 0 0 0.7768,0.11763 z" fill="#000000" stroke="none"/><path style="" d="m 9.9515,294.55954 a 3.4991252,3.4991252 0 0 0 2.2193,-0.007 v -0.27444 a 3.4991252,3.4991252 0 0 1 -2.2193,0.007 z" fill="#000000" stroke="none"/><path style="" d="m 12.1708,294.70174 v 0.27444 a 3.4991252,3.4991252 0 0 1 -2.2193,0.007 v -0.27443 a 3.4991252,3.4991252 0 0 0 2.2193,-0.007 z" fill="#000000" stroke="none"/><path style="" d="m 10.1416,295.57922 a 3.4991252,3.4991252 0 0 0 1.8408,-0.006 0.25679776,0.25679776 0 0 0 0.1884,-0.24752 v -0.19999 a 3.4991252,3.4991252 0 0 1 -2.2193,0.007 v 0.19868 a 0.25679776,0.25679776 0 0 0 0.1901,0.24799 z" fill="#000000" stroke="none"/><path style="" d="m 10.0152,294.15427 a 3.4991252,3.4991252 0 0 0 2.0707,0 0.11127904,0.11127904 0 0 0 0.01,-0.20942 2.7793307,2.7793307 0 0 0 -2.0885,0 0.11127904,0.11127904 0 0 0 0.01,0.20942 z" fill="#000000" stroke="none"/><path style="" d="m 4.2315,289.60469 v -1.47007 H 4.614 v 1.47007 z" fill="#000000" stroke="none"/><path style="" d="m 5.1167,287.55778 h 0.3824 v 2.04691 H 5.1167 Z" fill="#000000" stroke="none"/><path style="" d="m 6.0018,288.57078 h 0.3824 v 1.03391 H 6.0018 Z" fill="#000000" stroke="none"/><path style="" d="m 7.2694,287.78717 v 1.81752 H 6.8869 v -1.81752 z" fill="#000000" stroke="none"/><path style="" d="m 5.6616,287.04324 a 0.40082743,0.40082743 0 0 0 -0.6472,-0.0421 l -0.5638,0.67859 0.1542,0.12808 0.5638,-0.67859 a 0.20041367,0.20041367 0 0 1 0.3236,0.0211 l 0.4372,0.69217 a 0.40082743,0.40082743 0 0 0 0.6599,0.0261 l 0.6476,-0.86558 0.096,0.0719 0.014,-0.38621 -0.3666,0.12229 0.096,0.0719 -0.6478,0.86558 a 0.20041367,0.20041367 0 0 1 -0.3298,-0.013 z" fill="#000000" stroke="none"/><path style="" d="m 3.9285,290.02674 a 0.13375614,0.13375614 0 0 0 0,0.26751 h 3.7943 a 0.13375614,0.13375614 0 0 0 0,-0.26751 z" fill="#000000" stroke="none"/><path style="" d="M 5.4479,293.20821 H 4.9664 a 0.69378626,0.69378626 0 0 0 0.4845,0.66144 v 0.29092 h 0.4888 v -0.31736 a 0.69378626,0.69378626 0 0 0 0.046,-1.24769 l -0.3781,-0.20083 a 0.21232456,0.21232456 0 1 1 0.2999,-0.19342 H 6.389 a 0.69378626,0.69378626 0 0 0 -0.4494,-0.64931 v -0.30305 H 5.4508 v 0.30305 a 0.69378626,0.69378626 0 0 0 -0.081,1.26231 l 0.3892,0.20634 a 0.21232456,0.21232456 0 1 1 -0.3117,0.1876 z" fill="#000000" stroke="none"/></g><text x="0" y="27.7" fill="#000000" font-size="5px" font-weight="bold" font-family="'Helvetica Neue', Helvetica, Arial-Unicode, Arial, Sans-serif">Created by Phạm Thanh Lộc</text><text x="0" y="32.7" fill="#000000" font-size="5px" font-weight="bold" font-family="'Helvetica Neue', Helvetica, Arial-Unicode, Arial, Sans-serif">from the Noun Project</text></svg>