<svg xmlns:dc="http://purl.org/dc/elements/1.1/" xmlns:cc="http://creativecommons.org/ns#" xmlns:rdf="http://www.w3.org/1999/02/22-rdf-syntax-ns#" xmlns:svg="http://www.w3.org/2000/svg" xmlns="http://www.w3.org/2000/svg" xmlns:sodipodi="http://sodipodi.sourceforge.net/DTD/sodipodi-0.dtd" xmlns:inkscape="http://www.inkscape.org/namespaces/inkscape" viewBox="0 0 12.7 15.875" version="1.1" x="0px" y="0px"><g transform="translate(0,-284.29998)"><path style="" d="m 10.9127,294.0985 a 3.96453,3.96453 0 0 1 -3.3049,0.82819 2.9323727,2.9323727 0 0 1 -1.9097,-1.32218 5.580386,5.580386 0 0 1 -0.5355,-1.12019 h 3.7151 l 0.3724,-0.85214 H 4.9392 a 5.580386,5.580386 0 0 1 -0.018,-1.85695 h 3.9566 l 0.3725,-0.85214 h -4.124 a 5.580386,5.580386 0 0 1 0.5719,-1.22762 2.9323727,2.9323727 0 0 1 1.9098,-1.32218 3.96453,3.96453 0 0 1 3.3048,0.82818 0.29323727,0.29323727 0 0 0 0.4796,-0.22622 v -0.91415 a 0.58647453,0.58647453 0 0 0 -0.294,-0.50833 5.4307162,5.4307162 0 0 0 -3.7803,-0.61684 4.3985591,4.3985591 0 0 0 -2.8632,1.98328 7.0465727,7.0465727 0 0 0 -0.854,2.00388 H 1.68 l -0.3724,0.85214 h 2.133 a 7.0465727,7.0465727 0 0 0 0.014,1.85695 H 1.68 l -0.3724,0.85214 h 2.3213 a 7.0465727,7.0465727 0 0 0 0.8261,1.89645 4.3985591,4.3985591 0 0 0 2.8632,1.98328 5.4307162,5.4307162 0 0 0 3.7802,-0.61684 0.58647453,0.58647453 0 0 0 0.294,-0.50834 v -0.91415 a 0.29323727,0.29323727 0 0 0 -0.4795,-0.22622 z" fill="#000000" stroke="none"/></g><text x="0" y="27.7" fill="#000000" font-size="5px" font-weight="bold" font-family="'Helvetica Neue', Helvetica, Arial-Unicode, Arial, Sans-serif">Created by Phạm Thanh Lộc</text><text x="0" y="32.7" fill="#000000" font-size="5px" font-weight="bold" font-family="'Helvetica Neue', Helvetica, Arial-Unicode, Arial, Sans-serif">from the Noun Project</text></svg>