<svg xmlns:x="http://ns.adobe.com/Extensibility/1.0/" xmlns:i="http://ns.adobe.com/AdobeIllustrator/10.0/" xmlns:graph="http://ns.adobe.com/Graphs/1.0/" xmlns="http://www.w3.org/2000/svg" xmlns:xlink="http://www.w3.org/1999/xlink" xmlns:a="http://ns.adobe.com/AdobeSVGViewerExtensions/3.0/" version="1.0" x="0px" y="0px" viewBox="0 0 100 125" enable-background="new 0 0 100 100" xml:space="preserve"><metadata><sfw xmlns="http://ns.adobe.com/SaveForWeb/1.0/"><slices/><sliceSourceBounds y="5" x="12.683" width="74.635" height="90" bottomLeftOrigin="true"/></sfw></metadata><g><path d="M76.342,64.269c-6.062,0-10.976,4.914-10.976,10.976S70.28,86.22,76.342,86.22s10.976-4.914,10.976-10.976   S82.403,64.269,76.342,64.269z M77.51,83.146c-1.798,0-3.417-0.688-4.504-1.975c-0.844-0.932-1.398-2.219-1.598-3.816h-1.376   v-1.109h1.265c0-0.11,0-0.222,0-0.332c0-0.333,0.022-0.666,0.045-0.977h-1.31v-1.109h1.465c0.266-1.554,0.909-2.84,1.819-3.75   c1.109-1.175,2.573-1.841,4.37-1.841c1.332,0,2.353,0.377,2.974,0.71l-0.443,1.464c-0.577-0.333-1.487-0.621-2.485-0.621   c-1.198,0-2.196,0.421-2.951,1.198c-0.644,0.665-1.087,1.664-1.309,2.84h6.189v1.109h-6.39c-0.044,0.288-0.044,0.599-0.044,0.932   c0,0.133,0,0.244,0,0.377h6.434v1.109h-6.278c0.178,1.287,0.599,2.241,1.22,2.906c0.821,0.888,1.931,1.287,3.129,1.287   c1.176,0,2.197-0.422,2.707-0.732l0.377,1.42C80.127,82.702,78.951,83.146,77.51,83.146z"/><path d="M76.342,62.073c1.54,0,3.017,0.267,4.39,0.752V18.171L67.561,5H12.683v90h68.049v-7.338   c-1.373,0.486-2.85,0.753-4.39,0.753c-7.274,0-13.171-5.897-13.171-13.171C63.171,67.97,69.067,62.073,76.342,62.073z    M67.561,7.195l10.976,10.976H67.561V7.195z M17.073,26.951h28.536v8.78H17.073V26.951z M17.073,42.317h39.512v8.78H17.073V42.317z    M56.585,79.634H17.073v-8.78h39.512V79.634z M60.976,66.464H17.073v-8.781h43.902V66.464z M63.171,20.366H17.073v-8.781h46.098   V20.366z"/></g><text x="0" y="115" fill="#000000" font-size="5px" font-weight="bold" font-family="'Helvetica Neue', Helvetica, Arial-Unicode, Arial, Sans-serif">Created by Ralf Schmitzer</text><text x="0" y="120" fill="#000000" font-size="5px" font-weight="bold" font-family="'Helvetica Neue', Helvetica, Arial-Unicode, Arial, Sans-serif">from the Noun Project</text></svg>