<svg xmlns:dc="http://purl.org/dc/elements/1.1/" xmlns:cc="http://creativecommons.org/ns#" xmlns:rdf="http://www.w3.org/1999/02/22-rdf-syntax-ns#" xmlns:svg="http://www.w3.org/2000/svg" xmlns="http://www.w3.org/2000/svg" xmlns:sodipodi="http://sodipodi.sourceforge.net/DTD/sodipodi-0.dtd" xmlns:inkscape="http://www.inkscape.org/namespaces/inkscape" viewBox="0 0 12.7 15.875" version="1.1" x="0px" y="0px"><g transform="translate(0,-284.29998)"><path style="" d="m 1.9384,284.82915 v 9.73533 h 1.3079 v 1.90634 h 7.5153 V 286.7355 H 9.4537 v -1.90635 z m 7.2342,0.26459 v 1.64176 H 4.1502 Z m -6.9531,0.016 h 5.9992 l -4.9724,1.62574 v 7.54786 H 2.2195 Z m 2.2893,3.55223 h 4.9904 v 1.60973 H 4.5088 Z m 0.1406,2.60863 h 4.7092 a 0.14039584,0.14039584 0 0 1 0,0.2806 H 4.6494 a 0.14039584,0.14039584 0 0 1 0,-0.2806 z m 0,0.85938 h 4.7092 a 0.140395,0.140395 0 0 1 0,0.2806 H 4.6494 a 0.140395,0.140395 0 0 1 0,-0.2806 z m 0,0.85938 h 4.7092 a 0.14039584,0.14039584 0 0 1 0,0.2806 H 4.6494 a 0.14039584,0.14039584 0 0 1 0,-0.2806 z m 0,0.85938 h 4.7092 a 0.140395,0.140395 0 0 1 0,0.2806 H 4.6494 a 0.140395,0.140395 0 0 1 0,-0.2806 z m 0,0.85938 h 4.7092 a 0.14039584,0.14039584 0 0 1 0,0.2806 H 4.6494 a 0.14039584,0.14039584 0 0 1 0,-0.2806 z" fill="#000000" stroke="none"/></g><text x="0" y="27.7" fill="#000000" font-size="5px" font-weight="bold" font-family="'Helvetica Neue', Helvetica, Arial-Unicode, Arial, Sans-serif">Created by Phạm Thanh Lộc</text><text x="0" y="32.7" fill="#000000" font-size="5px" font-weight="bold" font-family="'Helvetica Neue', Helvetica, Arial-Unicode, Arial, Sans-serif">from the Noun Project</text></svg>